<svg xmlns="http://www.w3.org/2000/svg" xmlns:xlink="http://www.w3.org/1999/xlink" width="500" zoomAndPan="magnify" viewBox="0 0 375 374.999991" height="500" preserveAspectRatio="xMidYMid meet" version="1.0"><defs><g/><clipPath id="67a341941c"><path d="M 135.222656 55 L 160 55 L 160 140 L 135.222656 140 Z M 135.222656 55 " clip-rule="nonzero"/></clipPath><clipPath id="665de1afa8"><path d="M 135.222656 144 L 239.472656 144 L 239.472656 152.625 L 135.222656 152.625 Z M 135.222656 144 " clip-rule="nonzero"/></clipPath><clipPath id="247c7bcb8a"><path d="M 194 53.625 L 239.472656 53.625 L 239.472656 140 L 194 140 Z M 194 53.625 " clip-rule="nonzero"/></clipPath></defs><rect x="-37.5" width="450" fill="#ffffff" y="-37.499999" height="449.999989" fill-opacity="1"/><rect x="-37.5" width="450" fill="#ffffff" y="-37.499999" height="449.999989" fill-opacity="1"/><rect x="-37.5" width="450" fill="#2b2b2b" y="-37.499999" height="449.999989" fill-opacity="1"/><g fill="#ffffff" fill-opacity="1"><g transform="translate(96.320893, 202.320644)"><g><path d="M 2.390625 -41.796875 L 8.953125 -41.796875 L 8.953125 -5.96875 L 19.765625 -5.96875 L 19.765625 0 L 2.390625 0 Z M 2.390625 -41.796875 "/></g></g></g><g fill="#ffffff" fill-opacity="1"><g transform="translate(119.546264, 202.320644)"><g><path d="M 2.390625 -41.796875 L 8.953125 -41.796875 L 8.953125 0 L 2.390625 0 Z M 2.390625 -41.796875 "/></g></g></g><g fill="#ffffff" fill-opacity="1"><g transform="translate(133.875655, 202.320644)"><g><path d="M 12.296875 -41.796875 C 15.722656 -41.796875 18.203125 -41 19.734375 -39.40625 C 21.265625 -37.8125 22.03125 -35.40625 22.03125 -32.1875 L 22.03125 -30.6875 C 22.03125 -28.539062 21.691406 -26.769531 21.015625 -25.375 C 20.335938 -23.976562 19.265625 -22.941406 17.796875 -22.265625 C 19.585938 -21.585938 20.847656 -20.484375 21.578125 -18.953125 C 22.316406 -17.421875 22.6875 -15.539062 22.6875 -13.3125 L 22.6875 -9.90625 C 22.6875 -6.6875 21.847656 -4.226562 20.171875 -2.53125 C 18.503906 -0.84375 16.019531 0 12.71875 0 L 2.390625 0 L 2.390625 -41.796875 Z M 8.953125 -18.8125 L 8.953125 -5.96875 L 12.71875 -5.96875 C 13.832031 -5.96875 14.675781 -6.265625 15.25 -6.859375 C 15.832031 -7.460938 16.125 -8.539062 16.125 -10.09375 L 16.125 -13.734375 C 16.125 -15.679688 15.796875 -17.015625 15.140625 -17.734375 C 14.484375 -18.453125 13.394531 -18.8125 11.875 -18.8125 Z M 8.953125 -35.828125 L 8.953125 -24.78125 L 11.515625 -24.78125 C 12.753906 -24.78125 13.722656 -25.097656 14.421875 -25.734375 C 15.117188 -26.367188 15.46875 -27.519531 15.46875 -29.1875 L 15.46875 -31.515625 C 15.46875 -33.035156 15.195312 -34.132812 14.65625 -34.8125 C 14.113281 -35.488281 13.269531 -35.828125 12.125 -35.828125 Z M 8.953125 -35.828125 "/></g></g></g><g fill="#ffffff" fill-opacity="1"><g transform="translate(161.101233, 202.320644)"><g><path d="M 16.125 0 C 16.039062 -0.28125 15.957031 -0.539062 15.875 -0.78125 C 15.800781 -1.019531 15.734375 -1.316406 15.671875 -1.671875 C 15.609375 -2.023438 15.566406 -2.476562 15.546875 -3.03125 C 15.523438 -3.59375 15.515625 -4.296875 15.515625 -5.140625 L 15.515625 -11.703125 C 15.515625 -13.648438 15.175781 -15.019531 14.5 -15.8125 C 13.832031 -16.613281 12.738281 -17.015625 11.21875 -17.015625 L 8.953125 -17.015625 L 8.953125 0 L 2.390625 0 L 2.390625 -41.796875 L 12.296875 -41.796875 C 15.722656 -41.796875 18.203125 -41 19.734375 -39.40625 C 21.265625 -37.8125 22.03125 -35.40625 22.03125 -32.1875 L 22.03125 -28.890625 C 22.03125 -24.597656 20.597656 -21.773438 17.734375 -20.421875 C 19.398438 -19.742188 20.539062 -18.640625 21.15625 -17.109375 C 21.78125 -15.578125 22.09375 -13.710938 22.09375 -11.515625 L 22.09375 -5.078125 C 22.09375 -4.035156 22.128906 -3.125 22.203125 -2.34375 C 22.285156 -1.570312 22.488281 -0.789062 22.8125 0 Z M 8.953125 -35.828125 L 8.953125 -22.984375 L 11.515625 -22.984375 C 12.753906 -22.984375 13.722656 -23.300781 14.421875 -23.9375 C 15.117188 -24.570312 15.46875 -25.726562 15.46875 -27.40625 L 15.46875 -31.515625 C 15.46875 -33.035156 15.195312 -34.132812 14.65625 -34.8125 C 14.113281 -35.488281 13.269531 -35.828125 12.125 -35.828125 Z M 8.953125 -35.828125 "/></g></g></g><g fill="#ffffff" fill-opacity="1"><g transform="translate(188.088002, 202.320644)"><g><path d="M 8.953125 -24.1875 L 17.96875 -24.1875 L 17.96875 -18.203125 L 8.953125 -18.203125 L 8.953125 -5.96875 L 20.296875 -5.96875 L 20.296875 0 L 2.390625 0 L 2.390625 -41.796875 L 20.296875 -41.796875 L 20.296875 -35.828125 L 8.953125 -35.828125 Z M 8.953125 -24.1875 "/></g></g></g><g fill="#ffffff" fill-opacity="1"><g transform="translate(213.044813, 202.320644)"><g><path d="M 16.125 0 C 16.039062 -0.28125 15.957031 -0.539062 15.875 -0.78125 C 15.800781 -1.019531 15.734375 -1.316406 15.671875 -1.671875 C 15.609375 -2.023438 15.566406 -2.476562 15.546875 -3.03125 C 15.523438 -3.59375 15.515625 -4.296875 15.515625 -5.140625 L 15.515625 -11.703125 C 15.515625 -13.648438 15.175781 -15.019531 14.5 -15.8125 C 13.832031 -16.613281 12.738281 -17.015625 11.21875 -17.015625 L 8.953125 -17.015625 L 8.953125 0 L 2.390625 0 L 2.390625 -41.796875 L 12.296875 -41.796875 C 15.722656 -41.796875 18.203125 -41 19.734375 -39.40625 C 21.265625 -37.8125 22.03125 -35.40625 22.03125 -32.1875 L 22.03125 -28.890625 C 22.03125 -24.597656 20.597656 -21.773438 17.734375 -20.421875 C 19.398438 -19.742188 20.539062 -18.640625 21.15625 -17.109375 C 21.78125 -15.578125 22.09375 -13.710938 22.09375 -11.515625 L 22.09375 -5.078125 C 22.09375 -4.035156 22.128906 -3.125 22.203125 -2.34375 C 22.285156 -1.570312 22.488281 -0.789062 22.8125 0 Z M 8.953125 -35.828125 L 8.953125 -22.984375 L 11.515625 -22.984375 C 12.753906 -22.984375 13.722656 -23.300781 14.421875 -23.9375 C 15.117188 -24.570312 15.46875 -25.726562 15.46875 -27.40625 L 15.46875 -31.515625 C 15.46875 -33.035156 15.195312 -34.132812 14.65625 -34.8125 C 14.113281 -35.488281 13.269531 -35.828125 12.125 -35.828125 Z M 8.953125 -35.828125 "/></g></g></g><g fill="#ffffff" fill-opacity="1"><g transform="translate(240.031582, 202.320644)"><g><path d="M 2.390625 -41.796875 L 8.953125 -41.796875 L 8.953125 0 L 2.390625 0 Z M 12.71875 -50.625 L 6.625 -44 L 2.203125 -44 L 6.265625 -50.625 Z M 12.71875 -50.625 "/></g></g></g><g fill="#ffffff" fill-opacity="1"><g transform="translate(254.360973, 202.320644)"><g><path d="M 23.640625 0 L 17.015625 0 L 15.875 -7.578125 L 7.828125 -7.578125 L 6.6875 0 L 0.65625 0 L 7.34375 -41.796875 L 16.953125 -41.796875 Z M 8.65625 -13.25 L 14.984375 -13.25 L 11.828125 -34.390625 Z M 8.65625 -13.25 "/></g></g></g><g fill="#ffffff" fill-opacity="1"><g transform="translate(132.246792, 252.932403)"><g><path d="M 2.453125 -42.890625 L 13.109375 -42.890625 C 16.503906 -42.890625 19.023438 -41.988281 20.671875 -40.1875 C 22.328125 -38.394531 23.15625 -35.757812 23.15625 -32.28125 L 23.15625 -10.59375 C 23.15625 -7.125 22.328125 -4.488281 20.671875 -2.6875 C 19.023438 -0.894531 16.503906 0 13.109375 0 L 2.453125 0 Z M 9.1875 -36.765625 L 9.1875 -6.125 L 12.984375 -6.125 C 14.046875 -6.125 14.882812 -6.429688 15.5 -7.046875 C 16.113281 -7.660156 16.421875 -8.742188 16.421875 -10.296875 L 16.421875 -32.59375 C 16.421875 -34.144531 16.113281 -35.226562 15.5 -35.84375 C 14.882812 -36.457031 14.046875 -36.765625 12.984375 -36.765625 Z M 9.1875 -36.765625 "/></g></g></g><g fill="#ffffff" fill-opacity="1"><g transform="translate(160.914883, 252.932403)"><g><path d="M 24.265625 0 L 17.453125 0 L 16.296875 -7.78125 L 8.03125 -7.78125 L 6.859375 0 L 0.671875 0 L 7.53125 -42.890625 L 17.40625 -42.890625 Z M 8.890625 -13.59375 L 15.375 -13.59375 L 12.125 -35.28125 Z M 8.890625 -13.59375 "/></g></g></g><g fill="#ffffff" fill-opacity="1"><g transform="translate(189.521723, 252.932403)"><g><path d="M 16.546875 0 C 16.460938 -0.28125 16.378906 -0.539062 16.296875 -0.78125 C 16.210938 -1.03125 16.140625 -1.335938 16.078125 -1.703125 C 16.015625 -2.078125 15.972656 -2.550781 15.953125 -3.125 C 15.929688 -3.695312 15.921875 -4.410156 15.921875 -5.265625 L 15.921875 -12.015625 C 15.921875 -14.015625 15.570312 -15.421875 14.875 -16.234375 C 14.1875 -17.046875 13.066406 -17.453125 11.515625 -17.453125 L 9.1875 -17.453125 L 9.1875 0 L 2.453125 0 L 2.453125 -42.890625 L 12.625 -42.890625 C 16.132812 -42.890625 18.675781 -42.070312 20.25 -40.4375 C 21.820312 -38.800781 22.609375 -36.328125 22.609375 -33.015625 L 22.609375 -29.65625 C 22.609375 -25.238281 21.140625 -22.335938 18.203125 -20.953125 C 19.910156 -20.253906 21.082031 -19.117188 21.71875 -17.546875 C 22.351562 -15.972656 22.671875 -14.066406 22.671875 -11.828125 L 22.671875 -5.203125 C 22.671875 -4.140625 22.707031 -3.207031 22.78125 -2.40625 C 22.863281 -1.613281 23.070312 -0.8125 23.40625 0 Z M 9.1875 -36.765625 L 9.1875 -23.59375 L 11.828125 -23.59375 C 13.085938 -23.59375 14.078125 -23.914062 14.796875 -24.5625 C 15.515625 -25.21875 15.875 -26.40625 15.875 -28.125 L 15.875 -32.34375 C 15.875 -33.894531 15.597656 -35.019531 15.046875 -35.71875 C 14.492188 -36.414062 13.625 -36.765625 12.4375 -36.765625 Z M 9.1875 -36.765625 "/></g></g></g><g fill="#ffffff" fill-opacity="1"><g transform="translate(217.822279, 252.932403)"><g><path d="M 24.265625 0 L 17.453125 0 L 16.296875 -7.78125 L 8.03125 -7.78125 L 6.859375 0 L 0.671875 0 L 7.53125 -42.890625 L 17.40625 -42.890625 Z M 8.890625 -13.59375 L 15.375 -13.59375 L 12.125 -35.28125 Z M 8.890625 -13.59375 "/></g></g></g><g clip-path="url(#67a341941c)"><path fill="#ffffff" d="M 156.195312 139.972656 L 138.273438 139.972656 C 136.691406 139.972656 135.390625 138.675781 135.390625 137.09375 L 135.390625 58.367188 C 135.390625 56.785156 136.691406 55.488281 138.273438 55.488281 L 156.195312 55.488281 C 157.777344 55.488281 159.078125 56.785156 159.078125 58.367188 L 159.078125 137.09375 C 159.078125 138.675781 157.777344 139.972656 156.195312 139.972656 Z M 156.195312 139.972656 " fill-opacity="1" fill-rule="nonzero"/></g><g clip-path="url(#665de1afa8)"><path fill="#ffffff" d="M 239.90625 145.734375 L 239.90625 151.042969 C 239.90625 151.945312 239.171875 152.625 238.324219 152.625 L 136.976562 152.625 C 136.070312 152.625 135.390625 151.890625 135.390625 151.042969 L 135.390625 145.734375 C 135.390625 144.828125 136.128906 144.152344 136.976562 144.152344 L 238.324219 144.152344 C 239.230469 144.152344 239.90625 144.886719 239.90625 145.734375 Z M 239.90625 145.734375 " fill-opacity="1" fill-rule="nonzero"/></g><path fill="#ffffff" d="M 186.433594 139.972656 L 168.515625 139.972656 C 166.933594 139.972656 165.632812 138.675781 165.632812 137.09375 L 165.632812 58.367188 C 165.632812 56.785156 166.933594 55.488281 168.515625 55.488281 L 186.433594 55.488281 C 188.015625 55.488281 189.316406 56.785156 189.316406 58.367188 L 189.316406 137.09375 C 189.261719 138.675781 188.015625 139.972656 186.433594 139.972656 Z M 186.433594 139.972656 " fill-opacity="1" fill-rule="nonzero"/><g clip-path="url(#247c7bcb8a)"><path fill="#ffffff" d="M 237.871094 134.777344 L 220.6875 139.804688 C 219.164062 140.253906 217.578125 139.410156 217.128906 137.882812 L 194.855469 62.378906 C 194.40625 60.851562 195.253906 59.269531 196.777344 58.820312 L 213.960938 53.738281 C 215.488281 53.285156 217.070312 54.132812 217.523438 55.65625 L 239.792969 131.21875 C 240.246094 132.746094 239.398438 134.324219 237.871094 134.777344 Z M 237.871094 134.777344 " fill-opacity="1" fill-rule="nonzero"/></g></svg>